# xmcd
#
# Track frame offsets: 
#        150
#        13132
#        34304
#        52143
#        69023
#        87339
#        105681
#        127797
#        148827
#        170145
#        186518
#        204988
#
# Disc length: 2898 seconds
#
# Revision: 2
# Processed by: cddbd v1.5.2PL0 Copyright (c) Steve Scherf et al.
# Submitted via: ExactAudioCopy v1.0b3
#
DISCID=ae0b500c
DTITLE=Big Brian And The Blues Busters - Size "Does" Matter
DYEAR=1998
DGENRE=Blues
TTITLE0=Thunderbird
TTITLE1=Don't Ever Fall In Love
TTITLE2=Get Up
TTITLE3=She Say's She's Walkin'
TTITLE4=(Never Gonna Make It) With Out You
TTITLE5=Christeen
TTITLE6=Tobacco Road
TTITLE7=Didn't I Hear Ya Say
TTITLE8=Won't Fool Me Again
TTITLE9=Gimme Some Time
TTITLE10=Once Proud Soldier
TTITLE11=Follow Your Heart
EXTD=ID3G:   0
EXTT0=
EXTT1=
EXTT2=
EXTT3=
EXTT4=
EXTT5=
EXTT6=
EXTT7=
EXTT8=
EXTT9=
EXTT10=
EXTT11=
PLAYORDER=
